<svg width="38" height="42" viewBox="0 0 38 42" fill="none" xmlns="http://www.w3.org/2000/svg">
<g filter="url(#filter0_bd_16_35)">
<path fill-rule="evenodd" clip-rule="evenodd" d="M19.3984 26.8075C21.3158 25.8425 29.5 21.2683 29.5 13.5C29.5 7.70101 24.799 3 19 3C13.201 3 8.5 7.70101 8.5 13.5C8.5 21.2683 16.6842 25.8425 18.6016 26.8075C18.856 26.9355 19.144 26.9355 19.3984 26.8075ZM19 18C21.4853 18 23.5 15.9853 23.5 13.5C23.5 11.0147 21.4853 9 19 9C16.5147 9 14.5 11.0147 14.5 13.5C14.5 15.9853 16.5147 18 19 18Z" fill="#BD2800" fill-opacity="0.25"/>
<path d="M19.3984 26.8075L19.6682 27.3434L19.6682 27.3434L19.3984 26.8075ZM18.6016 26.8075L18.8713 26.2715L18.8713 26.2715L18.6016 26.8075ZM28.9 13.5C28.9 17.1597 26.9736 20.1003 24.7487 22.276C22.5255 24.4501 20.0611 25.8022 19.1287 26.2715L19.6682 27.3434C20.6531 26.8477 23.2395 25.4302 25.5877 23.134C27.9343 20.8393 30.1 17.6086 30.1 13.5H28.9ZM19 3.6C24.4676 3.6 28.9 8.03238 28.9 13.5H30.1C30.1 7.36964 25.1304 2.4 19 2.4V3.6ZM9.1 13.5C9.1 8.03238 13.5324 3.6 19 3.6V2.4C12.8696 2.4 7.9 7.36964 7.9 13.5H9.1ZM18.8713 26.2715C17.9389 25.8022 15.4745 24.4501 13.2513 22.276C11.0264 20.1003 9.1 17.1597 9.1 13.5H7.9C7.9 17.6086 10.0657 20.8393 12.4123 23.134C14.7605 25.4302 17.3469 26.8477 18.3318 27.3434L18.8713 26.2715ZM19.1287 26.2715C19.0439 26.3142 18.9561 26.3142 18.8713 26.2715L18.3318 27.3434C18.7559 27.5569 19.2441 27.5569 19.6682 27.3434L19.1287 26.2715ZM22.9 13.5C22.9 15.6539 21.1539 17.4 19 17.4V18.6C21.8167 18.6 24.1 16.3167 24.1 13.5H22.9ZM19 9.6C21.1539 9.6 22.9 11.3461 22.9 13.5H24.1C24.1 10.6833 21.8167 8.4 19 8.4V9.6ZM15.1 13.5C15.1 11.3461 16.8461 9.6 19 9.6V8.4C16.1833 8.4 13.9 10.6833 13.9 13.5H15.1ZM19 17.4C16.8461 17.4 15.1 15.6539 15.1 13.5H13.9C13.9 16.3167 16.1833 18.6 19 18.6V17.4Z" fill="#BD2800"/>
<path d="M30.6913 26.25C31.8762 26.9341 32.5 27.7101 32.5 28.5C32.5 29.2899 31.8762 30.0659 30.6913 30.75C29.5065 31.4341 27.8023 32.0022 25.75 32.3971C23.6977 32.7921 21.3697 33 19 33C16.6303 33 14.3023 32.7921 12.25 32.3971C10.1977 32.0022 8.49353 31.4341 7.30866 30.75C6.12379 30.0659 5.5 29.2899 5.5 28.5C5.5 27.7101 6.12378 26.9341 7.30866 26.25" stroke="#BD2800" stroke-width="1.2" stroke-linecap="round"/>
</g>
<defs>
<filter id="filter0_bd_16_35" x="-3" y="-4" width="44" height="48" filterUnits="userSpaceOnUse" color-interpolation-filters="sRGB">
<feFlood flood-opacity="0" result="BackgroundImageFix"/>
<feGaussianBlur in="BackgroundImageFix" stdDeviation="2"/>
<feComposite in2="SourceAlpha" operator="in" result="effect1_backgroundBlur_16_35"/>
<feColorMatrix in="SourceAlpha" type="matrix" values="0 0 0 0 0 0 0 0 0 0 0 0 0 0 0 0 0 0 127 0" result="hardAlpha"/>
<feOffset dy="4"/>
<feGaussianBlur stdDeviation="2"/>
<feComposite in2="hardAlpha" operator="out"/>
<feColorMatrix type="matrix" values="0 0 0 0 0 0 0 0 0 0 0 0 0 0 0 0 0 0 0.25 0"/>
<feBlend mode="normal" in2="effect1_backgroundBlur_16_35" result="effect2_dropShadow_16_35"/>
<feBlend mode="normal" in="SourceGraphic" in2="effect2_dropShadow_16_35" result="shape"/>
</filter>
</defs>
</svg>
